REM DIRINDEX 1\2,1\3,1\4
REM DIRNAME cjc151,folder01,folder02,folder03
TITLE ""
FILE "009 009_TOEFL_3900.mp3" MP3
  TRACK 01 AUDIO
    TITLE "2:cjc151_0356"
    INDEX 01 00:00:00
  TRACK 02 AUDIO
    TITLE "0:"
    INDEX 01 00:01:11
  TRACK 03 AUDIO
    TITLE "3:cjc151_0357"
    INDEX 01 00:02:65
  TRACK 04 AUDIO
    TITLE "0:"
    INDEX 01 00:06:08
  TRACK 05 AUDIO
    TITLE "2:cjc151_0358"
    INDEX 01 00:07:60
  TRACK 06 AUDIO
    TITLE "0:"
    INDEX 01 00:08:66
  TRACK 07 AUDIO
    TITLE "3:cjc151_0359"
    INDEX 01 00:10:43
  TRACK 08 AUDIO
    TITLE "0:"
    INDEX 01 00:14:74
  TRACK 09 AUDIO
    TITLE "2:cjc151_0360"
    INDEX 01 00:16:61
  TRACK 10 AUDIO
    TITLE "0:"
    INDEX 01 00:17:65
  TRACK 11 AUDIO
    TITLE "3:cjc151_0361"
    INDEX 01 00:19:44
  TRACK 12 AUDIO
    TITLE "0:"
    INDEX 01 00:23:06
  TRACK 13 AUDIO
    TITLE "2:cjc151_0362"
    INDEX 01 00:24:61
  TRACK 14 AUDIO
    TITLE "0:"
    INDEX 01 00:25:64
  TRACK 15 AUDIO
    TITLE "3:cjc151_0363"
    INDEX 01 00:27:61
  TRACK 16 AUDIO
    TITLE "0:"
    INDEX 01 00:31:47
  TRACK 17 AUDIO
    TITLE "2:cjc151_0364"
    INDEX 01 00:33:42
  TRACK 18 AUDIO
    TITLE "0:"
    INDEX 01 00:34:57
  TRACK 19 AUDIO
    TITLE "3:cjc151_0365"
    INDEX 01 00:36:38
  TRACK 20 AUDIO
    TITLE "0:"
    INDEX 01 00:39:72
  TRACK 21 AUDIO
    TITLE "2:cjc151_0366"
    INDEX 01 00:41:49
  TRACK 22 AUDIO
    TITLE "0:"
    INDEX 01 00:42:45
  TRACK 23 AUDIO
    TITLE "3:cjc151_0367"
    INDEX 01 00:44:22
  TRACK 24 AUDIO
    TITLE "0:"
    INDEX 01 00:47:09
  TRACK 25 AUDIO
    TITLE "2:cjc151_0368"
    INDEX 01 00:48:65
  TRACK 26 AUDIO
    TITLE "0:"
    INDEX 01 00:50:03
  TRACK 27 AUDIO
    TITLE "3:cjc151_0369"
    INDEX 01 00:51:58
  TRACK 28 AUDIO
    TITLE "0:"
    INDEX 01 00:55:63
  TRACK 29 AUDIO
    TITLE "2:cjc151_0370"
    INDEX 01 00:57:45
  TRACK 30 AUDIO
    TITLE "0:"
    INDEX 01 00:58:46
  TRACK 31 AUDIO
    TITLE "3:cjc151_0371"
    INDEX 01 01:00:25
  TRACK 32 AUDIO
    TITLE "0:"
    INDEX 01 01:04:31
  TRACK 33 AUDIO
    TITLE "2:cjc151_0372"
    INDEX 01 01:06:10
  TRACK 34 AUDIO
    TITLE "0:"
    INDEX 01 01:07:31
  TRACK 35 AUDIO
    TITLE "3:cjc151_0373"
    INDEX 01 01:09:10
  TRACK 36 AUDIO
    TITLE "0:"
    INDEX 01 01:13:16
  TRACK 37 AUDIO
    TITLE "2:cjc151_0374"
    INDEX 01 01:14:70
  TRACK 38 AUDIO
    TITLE "0:"
    INDEX 01 01:16:24
  TRACK 39 AUDIO
    TITLE "3:cjc151_0375"
    INDEX 01 01:18:06
  TRACK 40 AUDIO
    TITLE "0:"
    INDEX 01 01:21:47
  TRACK 41 AUDIO
    TITLE "2:cjc151_0376"
    INDEX 01 01:23:24
  TRACK 42 AUDIO
    TITLE "0:"
    INDEX 01 01:24:51
  TRACK 43 AUDIO
    TITLE "3:cjc151_0377"
    INDEX 01 01:26:30
  TRACK 44 AUDIO
    TITLE "0:"
    INDEX 01 01:30:48
  TRACK 45 AUDIO
    TITLE "2:cjc151_0378"
    INDEX 01 01:32:29
  TRACK 46 AUDIO
    TITLE "0:"
    INDEX 01 01:33:33
  TRACK 47 AUDIO
    TITLE "3:cjc151_0379"
    INDEX 01 01:35:10
  TRACK 48 AUDIO
    TITLE "0:"
    INDEX 01 01:39:17
  TRACK 49 AUDIO
    TITLE "2:cjc151_0380"
    INDEX 01 01:40:70
  TRACK 50 AUDIO
    TITLE "0:"
    INDEX 01 01:42:14
  TRACK 51 AUDIO
    TITLE "3:cjc151_0381"
    INDEX 01 01:43:68
  TRACK 52 AUDIO
    TITLE "0:"
    INDEX 01 01:47:17
  TRACK 53 AUDIO
    TITLE "2:cjc151_0382"
    INDEX 01 01:48:65
  TRACK 54 AUDIO
    TITLE "0:"
    INDEX 01 01:50:21
  TRACK 55 AUDIO
    TITLE "3:cjc151_0383"
    INDEX 01 01:52:00
  TRACK 56 AUDIO
    TITLE "0:"
    INDEX 01 01:57:06
  TRACK 57 AUDIO
    TITLE "2:cjc151_0384"
    INDEX 01 01:58:62
  TRACK 58 AUDIO
    TITLE "0:"
    INDEX 01 01:59:65
  TRACK 59 AUDIO
    TITLE "3:cjc151_0385"
    INDEX 01 02:01:45
  TRACK 60 AUDIO
    TITLE "0:"
    INDEX 01 02:04:74
  TRACK 61 AUDIO
    TITLE "2:cjc151_0386"
    INDEX 01 02:06:54
  TRACK 62 AUDIO
    TITLE "0:"
    INDEX 01 02:07:51
  TRACK 63 AUDIO
    TITLE "3:cjc151_0387"
    INDEX 01 02:09:28
  TRACK 64 AUDIO
    TITLE "0:"
    INDEX 01 02:12:64
  TRACK 65 AUDIO
    TITLE "2:cjc151_0388"
    INDEX 01 02:14:43
  TRACK 66 AUDIO
    TITLE "0:"
    INDEX 01 02:15:54
  TRACK 67 AUDIO
    TITLE "3:cjc151_0389"
    INDEX 01 02:17:34
  TRACK 68 AUDIO
    TITLE "0:"
    INDEX 01 02:21:37
  TRACK 69 AUDIO
    TITLE "2:cjc151_0390"
    INDEX 01 02:23:17
  TRACK 70 AUDIO
    TITLE "0:"
    INDEX 01 02:24:34
  TRACK 71 AUDIO
    TITLE "3:cjc151_0391"
    INDEX 01 02:26:13
  TRACK 72 AUDIO
    TITLE "0:"
    INDEX 01 02:30:25
  TRACK 73 AUDIO
    TITLE "2:cjc151_0392"
    INDEX 01 02:32:04
  TRACK 74 AUDIO
    TITLE "0:"
    INDEX 01 02:33:29
  TRACK 75 AUDIO
    TITLE "3:cjc151_0393"
    INDEX 01 02:35:08
  TRACK 76 AUDIO
    TITLE "0:"
    INDEX 01 02:39:39
  TRACK 77 AUDIO
    TITLE "2:cjc151_0394"
    INDEX 01 02:41:21
  TRACK 78 AUDIO
    TITLE "0:"
    INDEX 01 02:42:24
  TRACK 79 AUDIO
    TITLE "3:cjc151_0395"
    INDEX 01 02:44:01
  TRACK 80 AUDIO
    TITLE "0:"
    INDEX 01 02:47:37
  TRACK 81 AUDIO
    TITLE "2:cjc151_0396"
    INDEX 01 02:49:16
  TRACK 82 AUDIO
    TITLE "0:"
    INDEX 01 02:50:14
  TRACK 83 AUDIO
    TITLE "3:cjc151_0397"
    INDEX 01 02:51:70
  TRACK 84 AUDIO
    TITLE "0:"
    INDEX 01 02:55:58
  TRACK 85 AUDIO
    TITLE "2:cjc151_0398"
    INDEX 01 02:57:43
  TRACK 86 AUDIO
    TITLE "0:"
    INDEX 01 02:58:48
  TRACK 87 AUDIO
    TITLE "3:cjc151_0399"
    INDEX 01 03:00:32
  TRACK 88 AUDIO
    TITLE "0:"
    INDEX 01 03:04:00
